HIERARCHY
ROOT hip
{
	OFFSET 0.000000 0.000000 0.000000 
	CHANNELS 6 Xposition Yposition Zposition Xrotation Zrotation Yrotation
	JOINT abdomen
	{
		OFFSET 0.000000 3.402643 0.000000 
		CHANNELS 3 Xrotation Zrotation Yrotation
		JOINT chest
		{
			OFFSET 0.000000 8.438565 -0.680529 
			CHANNELS 3 Xrotation Zrotation Yrotation
			JOINT neck
			{
				OFFSET 0.000000 10.207942 -0.272212 
				CHANNELS 3 Xrotation Zrotation Yrotation
				JOINT head
				{
					OFFSET 0.000000 3.130431 0.000000 
					CHANNELS 3 Xrotation Zrotation Yrotation
					End Site
					{
						OFFSET 0.000000 3.130435 0.000000 
					}
				}
			}
			JOINT lCollar
			{
				OFFSET 3.470700 6.669187 -0.816635 
				CHANNELS 3 Yrotation Zrotation Xrotation
				JOINT lShldr
				{
					OFFSET 3.198488 0.000000 0.000000 
					CHANNELS 3 Zrotation Yrotation Xrotation
					JOINT lForeArm
					{
						OFFSET 10.139888 0.000000 0.000000 
						CHANNELS 3 Yrotation Zrotation Xrotation
						JOINT lHand
						{
							OFFSET 8.370511 0.000000 0.000000 
							CHANNELS 3 Zrotation Yrotation Xrotation
							End Site
							{
								OFFSET 4.083176 0.000000 0.000000 
							}
						}
					}
				}
			}
			JOINT rCollar
			{
				OFFSET -3.470700 6.669187 -0.816635 
				CHANNELS 3 Yrotation Zrotation Xrotation
				JOINT rShldr
				{
					OFFSET -3.198488 0.000000 0.000000 
					CHANNELS 3 Zrotation Yrotation Xrotation
					JOINT rForeArm
					{
						OFFSET -10.139888 0.000000 0.000000 
						CHANNELS 3 Yrotation Zrotation Xrotation
						JOINT rHand
						{
							OFFSET -8.370511 0.000000 0.000000 
							CHANNELS 3 Zrotation Yrotation Xrotation
							End Site
							{
								OFFSET -4.083176 0.000000 0.000000 
							}
						}
					}
				}
			}
		}
	}
	JOINT lThigh
	{
		OFFSET 5.308129 -1.633274 1.361059 
		CHANNELS 3 Xrotation Zrotation Yrotation
		JOINT lShin
		{
			OFFSET -2.041588 -20.007561 0.000000 
			CHANNELS 3 Xrotation Zrotation Yrotation
			JOINT lFoot
			{
				OFFSET 0.000000 -19.190928 -1.224953 
				CHANNELS 3 Xrotation Yrotation Zrotation
				End Site
				{
					OFFSET 0.000000 -2.449906 4.627600 
				}
			}
		}
	}
	JOINT rThigh
	{
		OFFSET -5.308129 -1.633274 1.361059 
		CHANNELS 3 Xrotation Zrotation Yrotation
		JOINT rShin
		{
			OFFSET 2.041588 -20.007561 0.000000 
			CHANNELS 3 Xrotation Zrotation Yrotation
			JOINT rFoot
			{
				OFFSET 0.000000 -19.190928 -1.224953 
				CHANNELS 3 Xrotation Yrotation Zrotation
				End Site
				{
					OFFSET 0.000000 -2.449906 4.627600 
				}
			}
		}
	}
}
MOTION
Frames: 14
Frame Time: 0.033333
1.617085 39.366966 1.617085 -4.365235 -0.019475 -0.027810 24.779045 11.386151 -7.029765 -0.350311 -0.623065 7.719581 5.944252 -8.645932 6.105949 10.524219 0.508720 -0.030344 4.864631 -11.653366 3.095345 -12.977106 -75.966713 -19.818142 -60.252411 -2.902384 1.740213 34.914143 10.654766 -55.251247 9.826577 -1.252318 3.661070 56.027699 62.080872 -34.932907 54.934498 2.808602 1.854694 78.313644 41.619667 114.891121 -94.521034 19.677908 0.250379 116.711159 4.717185 -3.800109 -23.361336 -0.801202 -1.166768 -51.852898 -41.657143 -11.004397 153.792664 -6.171301 1.536605 -52.330467 8.512539 9.540148 
1.617085 39.189297 1.617085 -4.365235 -0.019475 -0.027810 25.211885 11.434869 -6.950143 -0.349790 -0.742190 8.183487 -20.440022 -6.121840 4.196865 10.524219 0.508720 -0.030344 -0.396325 -10.682381 -3.713528 -30.427151 -65.855042 -9.704736 -56.517632 -2.837251 1.828518 34.672787 10.786545 -55.916740 5.494555 -0.939283 -3.115278 56.423592 59.831520 -31.197166 45.845142 2.626047 2.026446 79.613838 41.779480 116.219505 -94.764999 19.951035 -0.114334 118.805786 4.838761 -3.679008 -26.720974 -1.029824 -1.421161 -49.058723 -42.290100 -11.835724 154.658936 -6.190516 1.477406 -55.812027 9.514482 10.228831 
1.617085 39.172646 1.617085 -4.365235 -0.019475 -0.027810 25.534458 11.468411 -6.882848 -0.476339 -0.825332 8.526015 -45.642540 -5.829422 1.922806 10.524219 0.508720 -0.030344 -5.085885 -8.811537 -10.199229 -36.025173 -54.356800 -9.792245 -52.785160 -2.769897 1.899978 34.484043 10.887969 -56.411209 1.656325 0.239903 -9.701382 57.739693 57.826855 -26.674437 37.197361 2.428826 2.169355 80.573380 41.876240 117.217285 -94.654617 20.233543 -0.369922 120.528152 4.936579 -3.596294 -29.709810 -1.227338 -1.692356 -46.216599 -42.855518 -12.774501 155.171509 -6.204783 1.430109 -58.831192 10.488921 10.942807 
1.617085 39.589066 1.617085 -4.365235 -0.019475 -0.027810 25.433538 11.456881 -6.903836 -1.101965 -0.708887 8.411357 -65.810211 -6.937821 0.619281 10.524219 0.508720 -0.030344 -8.566571 -6.646454 -15.964671 -37.787781 -43.144947 -11.812744 -49.096882 -2.695248 1.978041 34.550003 10.852283 -56.250275 -0.884196 1.657362 -15.633736 59.488098 54.976757 -22.016485 30.348406 2.261281 2.260114 80.257881 41.842125 116.882744 -93.123917 20.497885 -0.175488 120.753281 4.935574 -3.591770 -31.047667 -1.440103 -1.839767 -43.377354 -43.200401 -13.865529 154.235687 -6.181503 1.503747 -59.933983 11.362693 11.514914 
1.617085 40.449657 1.617085 -4.365235 -0.019475 -0.027810 24.566622 11.353989 -7.078140 -2.577932 -0.260004 7.503388 -77.107597 -7.754869 0.283657 10.524219 0.508720 -0.030344 -10.462724 -5.023620 -20.752802 -38.348743 -33.422234 -13.670380 -45.471539 -2.623727 2.034537 35.032703 10.588747 -54.919262 -1.596841 2.421543 -20.564447 60.651470 50.214668 -18.024137 26.623692 2.160040 2.296084 77.656387 41.529533 114.219666 -89.078026 20.672688 0.861975 118.444008 4.819262 -3.688459 -29.589281 -1.629884 -1.861595 -40.613663 -43.200077 -15.206037 150.803818 -6.127170 1.719922 -57.644562 12.072016 11.774421 
1.617085 42.642811 1.617085 -4.365235 -0.019475 -0.027810 22.996710 11.164897 -7.379092 -4.999459 0.470403 5.736687 -81.335136 -7.798297 0.240673 10.524219 0.508720 -0.030344 -11.295861 -3.995989 -25.000000 -38.711548 -24.477119 -15.184118 -41.573223 -2.535528 2.105641 35.920849 10.054514 -52.485737 -1.004272 2.349404 -25.000000 61.001026 43.329494 -14.259198 25.476646 2.129629 2.305802 72.964447 40.720367 109.375526 -82.513168 20.632858 2.663499 113.768654 4.537943 -3.894463 -25.690609 -1.838111 -1.736320 -37.645683 -42.849453 -16.864988 145.101898 -5.966362 2.121869 -52.318798 12.746047 11.663049 
1.617085 44.025322 1.617085 -8.789066 -0.048255 -0.051133 21.056580 10.912180 -7.748766 -8.053380 1.296596 3.374058 -83.110458 -7.489227 0.237827 10.524219 0.508720 -0.030344 -11.716897 -3.104483 -25.000000 -38.772545 -15.187173 -16.607454 -37.229103 -2.432040 2.177575 37.022522 9.295618 -49.427097 0.026890 1.832786 -25.000000 60.771881 35.160206 -10.038055 25.318188 2.122482 2.314693 67.284378 39.269489 103.503708 -74.425194 20.289843 4.920570 107.902885 4.186310 -4.140905 -20.730030 -1.978756 -1.509454 -34.334785 -42.242340 -18.806780 138.316742 -5.751740 2.579721 -45.508888 13.486158 11.309464 
1.617085 48.122890 1.617085 -13.271498 -0.076039 -0.060190 18.859446 10.610293 -8.154685 -11.556432 2.093017 0.576450 -82.811760 -6.893167 0.259479 10.524219 0.508720 -0.030344 -11.784555 -2.313599 -25.000000 -38.529797 -5.838099 -17.967857 -32.609573 -2.325099 2.238030 38.235531 8.344663 -45.951992 1.358710 0.919306 -25.000000 59.851990 26.319279 -5.337200 25.956480 2.147611 2.307138 61.216690 37.089760 97.213333 -65.341621 19.511806 7.401536 101.143051 3.749219 -4.380605 -14.961472 -2.122638 -1.217688 -30.878393 -41.403263 -20.866163 130.696594 -5.448813 3.023473 -37.600208 14.236247 10.806426 
1.617085 53.564129 1.617085 -17.792997 -0.102284 -0.084362 16.496220 10.276209 -8.588009 -15.325957 2.752154 -2.471622 -80.789162 -6.081680 0.385439 10.524219 0.508720 -0.030344 -11.546182 -1.629593 -25.000000 -38.036037 3.287004 -19.287161 -27.952452 -2.203201 2.290396 39.475521 7.259506 -42.239460 2.850185 -0.339123 -25.000000 58.221081 17.434576 -0.137436 27.233028 2.173918 2.295902 55.234127 34.195240 90.991257 -55.764030 18.267647 9.831872 93.853149 3.251029 -4.541406 -8.571593 -2.196161 -0.908377 -27.499401 -40.404762 -22.876032 122.565666 -5.068187 3.451625 -28.926605 14.949191 10.117040 
1.617085 59.216309 1.617085 -22.353590 -0.144509 -0.096825 14.068395 9.907481 -9.010535 -19.157913 3.221731 -5.593672 -77.430206 -5.161246 0.666568 10.524219 0.508720 -0.030344 -11.034329 -1.040006 -25.000000 -37.364529 11.899720 -20.577122 -23.426083 -2.086826 2.335773 40.647060 6.063580 -38.485138 4.436082 -1.828600 -25.000000 55.860733 9.079062 5.502250 28.939009 2.225039 2.270065 49.749687 30.737074 85.259575 -46.209221 16.610470 12.047815 86.304787 2.734856 -4.625017 -1.858355 -2.221117 -0.568672 -24.335915 -39.313152 -24.744547 114.159683 -4.599568 3.857122 -19.868814 15.616465 9.321774 
1.617085 64.507660 1.617085 -26.923960 -0.174142 -0.106874 11.685385 9.524742 -9.410683 -22.836161 3.464167 -8.573868 -73.089439 -4.235216 1.137242 10.524219 0.508720 -0.030344 -10.313221 -0.530551 -25.000000 -36.667866 19.756626 -21.917242 -19.253891 -1.977047 2.360500 41.712353 4.866571 -34.856544 6.035760 -3.437348 -25.000000 52.862087 1.729183 11.351268 30.888367 2.269733 2.258168 44.982834 26.971163 80.237122 -37.093353 14.682937 13.881020 78.817856 2.198304 -4.680968 4.965734 -2.173686 -0.235380 -21.552736 -38.211235 -26.385546 105.812958 -4.096362 4.155642 -10.812348 16.216528 8.540599 
1.617085 68.916092 1.617085 -31.494371 -0.208177 -0.116599 9.436444 9.158538 -9.775860 -26.162907 3.518467 -11.232558 -68.148140 -3.412315 1.792407 10.524219 0.508720 -0.030344 -9.476219 -0.121297 -25.000000 -36.125542 26.575947 -23.364031 -15.634973 -1.868772 2.386385 42.600273 3.730370 -31.515865 7.605361 -5.061567 -25.000000 49.440128 -4.277727 17.047770 32.898617 2.320116 2.233736 41.046436 23.197262 76.057373 -28.886814 12.695516 15.230727 71.763535 1.672951 -4.651941 11.634679 -2.105705 0.061182 -19.268385 -37.199791 -27.683107 97.757324 -3.559958 4.391033 -2.105878 16.697657 7.794021 
1.617085 71.908852 1.617085 -36.084366 -0.244656 -0.124433 7.429355 8.808808 -10.094810 -28.901827 3.440073 -13.354341 -62.955902 -2.757391 2.565898 10.524219 0.508720 -0.030344 -8.604362 0.227064 -25.000000 -35.955395 32.090210 -25.020010 -12.772638 -1.798640 2.393675 43.295021 2.770216 -28.640310 9.115038 -6.542315 -25.000000 45.950466 -8.770742 21.989838 34.800377 2.366341 2.204665 37.966484 19.754930 72.762238 -21.947449 10.834517 16.173998 65.381454 1.233920 -4.567015 17.923931 -2.014884 0.337696 -17.598595 -36.389538 -28.634499 90.283974 -3.042510 4.534069 5.849258 17.065708 7.185421 
1.617085 72.919289 1.617085 -40.635361 -0.281613 -0.119660 5.753176 8.511791 -10.342840 -30.857439 3.334446 -14.773936 -57.875828 -2.318932 3.408603 10.524219 0.508720 -0.030344 -7.825050 0.438074 -25.000000 -36.364258 36.027020 -26.989649 -10.865677 -1.741570 2.399113 43.767990 2.065161 -26.381891 10.562361 -7.798294 -25.000000 42.862617 -11.786292 25.433573 36.384857 2.403307 2.186893 35.721558 16.968210 70.360970 -16.630625 9.345449 16.720442 60.041733 0.863738 -4.472876 23.622627 -1.918756 0.529661 -16.621767 -35.883671 -29.196449 83.692230 -2.574109 4.613195 12.672398 17.351110 6.825158 
